<?xml version="1.0" standalone="no"?>
<svg xmlns:xlink="http://www.w3.org/1999/xlink" id="wave" style="transform:rotate(180deg); transition: 0.3s" viewBox="0 0 1440 490" version="1.1" xmlns="http://www.w3.org/2000/svg"><defs><linearGradient id="sw-gradient-0" x1="0" x2="0" y1="1" y2="0"><stop stop-color="rgba(0, 180, 216, 1)" offset="0%"/><stop stop-color="rgba(11, 124.117, 255, 1)" offset="100%"/></linearGradient></defs><path style="transform:translate(0, 0px); opacity:1" fill="url(#sw-gradient-0)" d="M0,294L60,285.8C120,278,240,261,360,277.7C480,294,600,343,720,302.2C840,261,960,131,1080,73.5C1200,16,1320,33,1440,57.2C1560,82,1680,114,1800,147C1920,180,2040,212,2160,228.7C2280,245,2400,245,2520,220.5C2640,196,2760,147,2880,138.8C3000,131,3120,163,3240,204.2C3360,245,3480,294,3600,302.2C3720,310,3840,278,3960,294C4080,310,4200,376,4320,334.8C4440,294,4560,147,4680,73.5C4800,0,4920,0,5040,0C5160,0,5280,0,5400,0C5520,0,5640,0,5760,49C5880,98,6000,196,6120,204.2C6240,212,6360,131,6480,106.2C6600,82,6720,114,6840,147C6960,180,7080,212,7200,204.2C7320,196,7440,147,7560,171.5C7680,196,7800,294,7920,302.2C8040,310,8160,229,8280,163.3C8400,98,8520,49,8580,24.5L8640,0L8640,490L8580,490C8520,490,8400,490,8280,490C8160,490,8040,490,7920,490C7800,490,7680,490,7560,490C7440,490,7320,490,7200,490C7080,490,6960,490,6840,490C6720,490,6600,490,6480,490C6360,490,6240,490,6120,490C6000,490,5880,490,5760,490C5640,490,5520,490,5400,490C5280,490,5160,490,5040,490C4920,490,4800,490,4680,490C4560,490,4440,490,4320,490C4200,490,4080,490,3960,490C3840,490,3720,490,3600,490C3480,490,3360,490,3240,490C3120,490,3000,490,2880,490C2760,490,2640,490,2520,490C2400,490,2280,490,2160,490C2040,490,1920,490,1800,490C1680,490,1560,490,1440,490C1320,490,1200,490,1080,490C960,490,840,490,720,490C600,490,480,490,360,490C240,490,120,490,60,490L0,490Z"/></svg>